{
  "accessors": [
    {
      "bufferView": 2,
      "componentType": 5126,
      "count": 4654,
      "max": [
        0.3616279363632202,
        -0.023773757740855217,
        0.3616279661655426
      ],
      "min": [
        -0.361627995967865,
        -0.26050418615341187,
        -0.3616279363632202
      ],
      "type": "VEC3"
    },
    {
      "bufferView": 2,
      "byteOffset": 55848,
      "componentType": 5126,
      "count": 4654,
      "max": [
        1.0,
        1.0,
        1.0
      ],
      "min": [
        -1.0,
        -1.0,
        -1.0
      ],
      "type": "VEC3"
    },
    {
      "bufferView": 1,
      "componentType": 5126,
      "count": 4654,
      "max": [
        1.309309959411621,
        1.3487530946731567
      ],
      "min": [
        -0.30931180715560913,
        -0.3487529754638672
      ],
      "type": "VEC2"
    },
    {
      "bufferView": 0,
      "componentType": 5125,
      "count": 10578,
      "type": "SCALAR"
    },
    {
      "bufferView": 2,
      "byteOffset": 111696,
      "componentType": 5126,
      "count": 25887,
      "max": [
        0.375,
        3.259731329308124e-08,
        0.375
      ],
      "min": [
        -0.375,
        -0.2774074375629425,
        -0.375
      ],
      "type": "VEC3"
    },
    {
      "bufferView": 2,
      "byteOffset": 422340,
      "componentType": 5126,
      "count": 25887,
      "max": [
        1.0,
        1.0,
        1.0
      ],
      "min": [
        -1.0,
        -1.0,
        -1.0
      ],
      "type": "VEC3"
    },
    {
      "bufferView": 1,
      "byteOffset": 37232,
      "componentType": 5126,
      "count": 25887,
      "max": [
        6.913880825042725,
        6.913880348205566
      ],
      "min": [
        -5.913880348205566,
        -5.913880825042725
      ],
      "type": "VEC2"
    },
    {
      "bufferView": 0,
      "byteOffset": 42312,
      "componentType": 5125,
      "count": 115152,
      "type": "SCALAR"
    },
    {
      "bufferView": 2,
      "byteOffset": 732984,
      "componentType": 5126,
      "count": 14065,
      "max": [
        0.36356982588768005,
        -0.021610882133245468,
        0.3635697662830353
      ],
      "min": [
        -0.36356985569000244,
        -0.26548197865486145,
        -0.3635697662830353
      ],
      "type": "VEC3"
    },
    {
      "bufferView": 2,
      "byteOffset": 901764,
      "componentType": 5126,
      "count": 14065,
      "max": [
        1.0,
        1.0,
        1.0
      ],
      "min": [
        -1.0,
        -1.0,
        -1.0
      ],
      "type": "VEC3"
    },
    {
      "bufferView": 3,
      "componentType": 5126,
      "count": 14065,
      "max": [
        1.0,
        0.5179420113563538,
        1.0,
        1.0
      ],
      "min": [
        -0.9996341466903687,
        -0.5179425477981567,
        -0.764706015586853,
        -1.0
      ],
      "type": "VEC4"
    },
    {
      "bufferView": 1,
      "byteOffset": 244328,
      "componentType": 5126,
      "count": 14065,
      "max": [
        1.396042823791504,
        2.0268871784210205
      ],
      "min": [
        -0.39542311429977417,
        -0.6768004894256592
      ],
      "type": "VEC2"
    },
    {
      "bufferView": 0,
      "byteOffset": 502920,
      "componentType": 5125,
      "count": 44676,
      "type": "SCALAR"
    }
  ],
  "asset": {
    "extras": {
      "author": "WwWuengy (https://sketchfab.com/wwwuengy)",
      "license": "CC-BY-4.0 (http://creativecommons.org/licenses/by/4.0/)",
      "source": "https://sketchfab.com/3d-models/ufo-modern-chandelier-0dfc315245b04659ae3957914083c5a6",
      "title": "Ufo Modern Chandelier"
    },
    "generator": "Sketchfab-15.12.0",
    "version": "2.0"
  },
  "bufferViews": [
    {
      "buffer": 0,
      "byteLength": 681624,
      "name": "floatBufferViews",
      "target": 34963
    },
    {
      "buffer": 0,
      "byteLength": 356848,
      "byteOffset": 681624,
      "byteStride": 8,
      "name": "floatBufferViews",
      "target": 34962
    },
    {
      "buffer": 0,
      "byteLength": 1070544,
      "byteOffset": 1038472,
      "byteStride": 12,
      "name": "floatBufferViews",
      "target": 34962
    },
    {
      "buffer": 0,
      "byteLength": 225040,
      "byteOffset": 2109016,
      "byteStride": 16,
      "name": "floatBufferViews",
      "target": 34962
    }
  ],
  "buffers": [
    {
      "byteLength": 2334056,
      "uri": "scene.bin"
    }
  ],
  "extensionsUsed": [
    "KHR_materials_emissive_strength",
    "KHR_materials_clearcoat"
  ],
  "images": [
    {
      "uri": "textures/glass_normal.jpeg"
    }
  ],
  "materials": [
    {
      "doubleSided": true,
      "emissiveFactor": [
        1.0,
        1.0,
        1.0
      ],
      "extensions": {
        "KHR_materials_emissive_strength": {
          "emissiveStrength": 10.0
        }
      },
      "name": "light",
      "pbrMetallicRoughness": {
        "baseColorFactor": [
          0.8,
          0.8,
          0.8,
          1.0
        ],
        "metallicFactor": 0.0,
        "roughnessFactor": 0.5
      }
    },
    {
      "doubleSided": true,
      "name": "body",
      "pbrMetallicRoughness": {
        "baseColorFactor": [
          0.0,
          0.08049169999999992,
          0.10221499999999994,
          1.0
        ],
        "metallicFactor": 0.8,
        "roughnessFactor": 0.5
      }
    },
    {
      "alphaMode": "BLEND",
      "doubleSided": true,
      "extensions": {
        "KHR_materials_clearcoat": {
          "clearcoatFactor": 1.0,
          "clearcoatRoughnessFactor": 0.04
        }
      },
      "name": "glass",
      "normalTexture": {
        "index": 0
      },
      "pbrMetallicRoughness": {
        "baseColorFactor": [
          1.0,
          1.0,
          1.0,
          0.5
        ],
        "roughnessFactor": 0.1
      }
    }
  ],
  "meshes": [
    {
      "name": "Object_0",
      "primitives": [
        {
          "attributes": {
            "NORMAL": 1,
            "POSITION": 0,
            "TEXCOORD_0": 2
          },
          "indices": 3,
          "material": 0,
          "mode": 4
        }
      ]
    },
    {
      "name": "Object_1",
      "primitives": [
        {
          "attributes": {
            "NORMAL": 5,
            "POSITION": 4,
            "TEXCOORD_0": 6
          },
          "indices": 7,
          "material": 1,
          "mode": 4
        }
      ]
    },
    {
      "name": "Object_2",
      "primitives": [
        {
          "attributes": {
            "NORMAL": 9,
            "POSITION": 8,
            "TANGENT": 10,
            "TEXCOORD_0": 11
          },
          "indices": 12,
          "material": 2,
          "mode": 4
        }
      ]
    }
  ],
  "nodes": [
    {
      "children": [
        1
      ],
      "matrix": [
        1.0,
        0.0,
        0.0,
        0.0,
        0.0,
        2.220446049250313e-16,
        -1.0,
        0.0,
        0.0,
        1.0,
        2.220446049250313e-16,
        0.0,
        0.0,
        0.0,
        0.0,
        1.0
      ],
      "name": "Sketchfab_model"
    },
    {
      "children": [
        2
      ],
      "name": "root"
    },
    {
      "children": [
        3,
        5,
        7
      ],
      "matrix": [
        1.0,
        0.0,
        0.0,
        0.0,
        0.0,
        2.220446049250313e-16,
        1.0,
        0.0,
        0.0,
        -1.0,
        2.220446049250313e-16,
        0.0,
        0.0,
        0.0,
        0.0,
        1.0
      ],
      "name": "GLTF_SceneRootNode"
    },
    {
      "children": [
        4
      ],
      "name": "chandelier-light_0"
    },
    {
      "mesh": 0,
      "name": "Object_4"
    },
    {
      "children": [
        6
      ],
      "name": "chandelier-body_1"
    },
    {
      "mesh": 1,
      "name": "Object_6"
    },
    {
      "children": [
        8
      ],
      "name": "chandelier-glass_2"
    },
    {
      "mesh": 2,
      "name": "Object_8"
    }
  ],
  "samplers": [
    {
      "magFilter": 9729,
      "minFilter": 9987,
      "wrapS": 10497,
      "wrapT": 10497
    }
  ],
  "scene": 0,
  "scenes": [
    {
      "name": "Sketchfab_Scene",
      "nodes": [
        0
      ]
    }
  ],
  "textures": [
    {
      "sampler": 0,
      "source": 0
    }
  ]
}
